<?xml version="1.0" encoding="utf-8"?>
<!-- Generator: Adobe Illustrator 16.0.1, SVG Export Plug-In . SVG Version: 6.00 Build 0)  -->
<!DOCTYPE svg PUBLIC "-//W3C//DTD SVG 1.1//EN" "http://www.w3.org/Graphics/SVG/1.1/DTD/svg11.dtd">
<svg version="1.1" id="Layer_1" xmlns="http://www.w3.org/2000/svg" xmlns:xlink="http://www.w3.org/1999/xlink" x="0px" y="0px"
	 width="1280px" height="800px" viewBox="0 0 1280 800" enable-background="new 0 0 1280 800" xml:space="preserve">
<rect x="567" y="329" fill="#F0DB4F" width="144" height="144"/>
<g>
	<path fill-rule="evenodd" clip-rule="evenodd" d="M654.74,447.571c3.332-1.97,6.707-3.964,10.494-6.203
		c3.499,4.507,7.381,8.271,13.556,8.007c3.896-0.166,7.591-0.896,8.778-5.102c1.261-4.467-1.928-6.683-5.412-8.349
		c-4.052-1.937-8.27-3.554-12.211-5.687c-8.783-4.754-12.315-11.333-11.299-20.349c0.815-7.224,5.546-12.909,12.977-14.773
		c8.973-2.251,17.229-1.101,23.604,6.464c0.744,0.884,1.332,1.899,2.332,3.346c-3.32,2.247-6.558,4.439-10.848,7.344
		c-1.002-1.422-1.79-3.17-3.111-4.292c-3.363-2.855-8.539-2.342-10.689,0.793c-2.188,3.191-0.867,6.988,3.588,9.315
		c4.564,2.385,9.433,4.207,13.922,6.716c9.152,5.113,12.614,12.529,10.705,22.012c-1.612,8.004-7.668,12.984-17.59,14.463
		C670.895,463.162,659.775,458.008,654.74,447.571z"/>
	<path fill-rule="evenodd" clip-rule="evenodd" d="M617.625,442.375c2.475,4.222,6.31,8.186,11.519,6.533
		c5.305-1.682,4.323-6.534,4.359-10.555c0.114-12.65,0.042-25.303,0.042-37.954c0-1.629,0-3.259,0-5.194c4.666,0,8.877,0,13.717,0
		c0,2.731,0.001,5.175,0,7.619c0,12.651,0.055,25.303-0.021,37.954c-0.065,11.112-4.765,17.949-13.612,20.104
		c-11.566,2.816-21.505-1.398-26.857-11.835"/>
</g>
<g>
	<path d="M575.246,365.92c1.598-0.272,3.842-0.476,7.003-0.476c3.196,0,5.507,0.612,7.037,1.87c1.462,1.122,2.414,3.026,2.414,5.27
		c0,2.278-0.714,4.182-2.074,5.439c-1.768,1.632-4.42,2.414-7.479,2.414c-0.68,0-1.292-0.034-1.768-0.136v8.227h-5.134V365.92z
		 M580.379,376.323c0.442,0.102,0.986,0.136,1.734,0.136c2.753,0,4.453-1.394,4.453-3.706c0-2.108-1.428-3.366-4.045-3.366
		c-1.054,0-1.768,0.068-2.142,0.17V376.323z"/>
	<path d="M595.748,365.954c1.666-0.306,4.114-0.51,6.901-0.51c3.4,0,5.779,0.51,7.411,1.835c1.394,1.088,2.142,2.686,2.142,4.794
		c0,2.89-2.074,4.896-4.046,5.609v0.102c1.598,0.646,2.482,2.142,3.06,4.25c0.714,2.618,1.394,5.609,1.835,6.493h-5.303
		c-0.34-0.646-0.918-2.516-1.564-5.337c-0.646-2.89-1.632-3.638-3.773-3.672h-1.53v9.009h-5.134V365.954z M600.881,375.779h2.04
		c2.584,0,4.114-1.292,4.114-3.298c0-2.074-1.428-3.162-3.808-3.162c-1.258,0-1.972,0.068-2.346,0.17V375.779z"/>
	<path d="M622.266,382.646l-1.598,5.881h-5.371l7.003-22.914h6.766l7.139,22.914h-5.576l-1.768-5.881H622.266z M628.08,378.771
		l-1.428-4.862c-0.374-1.36-0.782-3.094-1.122-4.419h-0.102c-0.306,1.36-0.68,3.094-1.02,4.419l-1.394,4.862H628.08z"/>
	<path d="M658.305,387.474c-1.598,0.544-4.623,1.292-7.649,1.292c-4.182,0-7.207-1.054-9.314-3.06
		c-2.074-2.006-3.23-4.998-3.23-8.363c0.034-7.615,5.576-11.967,13.088-11.967c2.958,0,5.235,0.578,6.357,1.088l-1.088,4.182
		c-1.258-0.578-2.787-0.986-5.304-0.986c-4.317,0-7.615,2.448-7.615,7.411c0,4.76,2.992,7.514,7.241,7.514
		c1.156,0,2.108-0.136,2.517-0.306v-4.828h-3.536v-4.045h8.533V387.474z"/>
	<path d="M668.268,365.614v13.157c0,3.978,1.53,5.983,4.147,5.983c2.72,0,4.216-1.904,4.216-5.983v-13.157h5.168v12.851
		c0,7.071-3.57,10.437-9.554,10.437c-5.779,0-9.145-3.229-9.145-10.505v-12.783H668.268z"/>
	<path d="M700.668,378.839h-8.431v5.439h9.417v4.25h-14.585v-22.914h14.109v4.25h-8.941v4.759h8.431V378.839z"/>
</g>
</svg>
